<?xml version="1.0" encoding="UTF-8" standalone="no"?>
<svg
   viewBox="0 0 24 24"
   version="1.1"
   id="svg1"
   sodipodi:docname="account-circle-outline.svg"
   inkscape:version="1.3.2 (091e20ef0f, 2023-11-25, custom)"
   xmlns:inkscape="http://www.inkscape.org/namespaces/inkscape"
   xmlns:sodipodi="http://sodipodi.sourceforge.net/DTD/sodipodi-0.dtd"
   xmlns="http://www.w3.org/2000/svg"
   xmlns:svg="http://www.w3.org/2000/svg">
  <defs
     id="defs1" />
  <sodipodi:namedview
     id="namedview1"
     pagecolor="#ffffff"
     bordercolor="#000000"
     borderopacity="0.25"
     inkscape:showpageshadow="2"
     inkscape:pageopacity="0.0"
     inkscape:pagecheckerboard="0"
     inkscape:deskcolor="#d1d1d1"
     inkscape:zoom="28.875"
     inkscape:cx="12"
     inkscape:cy="12"
     inkscape:window-width="1920"
     inkscape:window-height="897"
     inkscape:window-x="0"
     inkscape:window-y="0"
     inkscape:window-maximized="1"
     inkscape:current-layer="svg1" />
  <path
     d="M12,2A10,10 0 0,0 2,12A10,10 0 0,0 12,22A10,10 0 0,0 22,12A10,10 0 0,0 12,2M7.07,18.28C7.5,17.38 10.12,16.5 12,16.5C13.88,16.5 16.5,17.38 16.93,18.28C15.57,19.36 13.86,20 12,20C10.14,20 8.43,19.36 7.07,18.28M18.36,16.83C16.93,15.09 13.46,14.5 12,14.5C10.54,14.5 7.07,15.09 5.64,16.83C4.62,15.5 4,13.82 4,12C4,7.59 7.59,4 12,4C16.41,4 20,7.59 20,12C20,13.82 19.38,15.5 18.36,16.83M12,6C10.06,6 8.5,7.56 8.5,9.5C8.5,11.44 10.06,13 12,13C13.94,13 15.5,11.44 15.5,9.5C15.5,7.56 13.94,6 12,6M12,11A1.5,1.5 0 0,1 10.5,9.5A1.5,1.5 0 0,1 12,8A1.5,1.5 0 0,1 13.5,9.5A1.5,1.5 0 0,1 12,11Z"
     id="path1"
     style="fill:#ffffff" />
</svg>
