<?xml version="1.0" encoding="UTF-8" standalone="no"?>
<svg
   viewBox="0 0 24 24"
   version="1.1"
   id="svg1"
   sodipodi:docname="frequently-asked-questions.svg"
   inkscape:version="1.3.2 (091e20ef0f, 2023-11-25, custom)"
   xmlns:inkscape="http://www.inkscape.org/namespaces/inkscape"
   xmlns:sodipodi="http://sodipodi.sourceforge.net/DTD/sodipodi-0.dtd"
   xmlns="http://www.w3.org/2000/svg"
   xmlns:svg="http://www.w3.org/2000/svg">
  <defs
     id="defs1" />
  <sodipodi:namedview
     id="namedview1"
     pagecolor="#ffffff"
     bordercolor="#000000"
     borderopacity="0.25"
     inkscape:showpageshadow="2"
     inkscape:pageopacity="0.0"
     inkscape:pagecheckerboard="0"
     inkscape:deskcolor="#d1d1d1"
     inkscape:zoom="28.875"
     inkscape:cx="12"
     inkscape:cy="12"
     inkscape:window-width="1920"
     inkscape:window-height="897"
     inkscape:window-x="0"
     inkscape:window-y="0"
     inkscape:window-maximized="1"
     inkscape:current-layer="svg1" />
  <path
     d="M18,15H6L2,19V3A1,1 0 0,1 3,2H18A1,1 0 0,1 19,3V14A1,1 0 0,1 18,15M23,9V23L19,19H8A1,1 0 0,1 7,18V17H21V8H22A1,1 0 0,1 23,9M8.19,4C7.32,4 6.62,4.2 6.08,4.59C5.56,5 5.3,5.57 5.31,6.36L5.32,6.39H7.25C7.26,6.09 7.35,5.86 7.53,5.7C7.71,5.55 7.93,5.47 8.19,5.47C8.5,5.47 8.76,5.57 8.94,5.75C9.12,5.94 9.2,6.2 9.2,6.5C9.2,6.82 9.13,7.09 8.97,7.32C8.83,7.55 8.62,7.75 8.36,7.91C7.85,8.25 7.5,8.55 7.31,8.82C7.11,9.08 7,9.5 7,10H9C9,9.69 9.04,9.44 9.13,9.26C9.22,9.08 9.39,8.9 9.64,8.74C10.09,8.5 10.46,8.21 10.75,7.81C11.04,7.41 11.19,7 11.19,6.5C11.19,5.74 10.92,5.13 10.38,4.68C9.85,4.23 9.12,4 8.19,4M7,11V13H9V11H7M13,13H15V11H13V13M13,4V10H15V4H13Z"
     id="path1"
     style="fill:#ffffff" />
</svg>
