<?xml version="1.0" encoding="UTF-8" standalone="no"?>
<svg
   viewBox="0 0 24 24"
   version="1.1"
   id="svg1"
   sodipodi:docname="shield-account-variant.svg"
   inkscape:version="1.3.2 (091e20ef0f, 2023-11-25, custom)"
   xmlns:inkscape="http://www.inkscape.org/namespaces/inkscape"
   xmlns:sodipodi="http://sodipodi.sourceforge.net/DTD/sodipodi-0.dtd"
   xmlns="http://www.w3.org/2000/svg"
   xmlns:svg="http://www.w3.org/2000/svg">
  <defs
     id="defs1" />
  <sodipodi:namedview
     id="namedview1"
     pagecolor="#ffffff"
     bordercolor="#000000"
     borderopacity="0.25"
     inkscape:showpageshadow="2"
     inkscape:pageopacity="0.0"
     inkscape:pagecheckerboard="0"
     inkscape:deskcolor="#d1d1d1"
     inkscape:zoom="30.708333"
     inkscape:cx="12"
     inkscape:cy="12"
     inkscape:window-width="1920"
     inkscape:window-height="941"
     inkscape:window-x="0"
     inkscape:window-y="0"
     inkscape:window-maximized="1"
     inkscape:current-layer="svg1" />
  <path
     d="M17 11C17.3 11 17.7 11 18 11.1V6.3L10.5 3L3 6.3V11.2C3 15.7 6.2 20 10.5 21C11.1 20.9 11.6 20.7 12.1 20.5C11.4 19.5 11 18.3 11 17C11 13.7 13.7 11 17 11M17 13C14.8 13 13 14.8 13 17S14.8 21 17 21 21 19.2 21 17 19.2 13 17 13M17 14.4C17.6 14.4 18.1 14.9 18.1 15.5C18.1 16.1 17.6 16.6 17 16.6S15.9 16.1 15.9 15.5 16.4 14.4 17 14.4M17 19.8C16.1 19.8 15.3 19.3 14.8 18.6C14.9 17.9 16.3 17.5 17 17.5S19.2 17.9 19.2 18.6C18.7 19.3 17.9 19.8 17 19.8Z"
     id="path1"
     style="fill:#ffffff" />
</svg>
